# xmcd CD database file
#
# Track frame offsets:
#	150
#	13473
#	32186
#	50632
#	70851
#	85111
#	99864
#	123081
#	138146
#	158763
#	177141
#	189324
#	204187
#	225590
#
# Disc length: 3193 seconds
#
# Revision: 0
# Processed by: cddbd v1.5.2PL0 Copyright (c) Steve Scherf et al.
# Submitted via: CDex 1.70beta2
#
DISCID=aa0c770e
DTITLE=Various Artist - Jazz from the Vaults CD5
DYEAR=2005
DGENRE=Jazz
TTITLE0=Billie Holiday - What a Little Moonlight Can Do
TTITLE1=Chet Baker - Time After Time (live)
TTITLE2=Dizzy Gillespie and Charlie Parker - Salt Peanuts (live)
TTITLE3=Duke Ellington - Take The 'a' Train
TTITLE4=Lionel Hampton - Flying Home
TTITLE5=Louis Armstrong - West End Blues
TTITLE6=Miles Davis With John Coltrane - All Of You (live)
TTITLE7=Teddy Wilson - How High the Moon
TTITLE8=Bud Shank - Misty Eyes
TTITLE9=Gerry Mulligan - Lullaby of The Leaves
TTITLE10=Mary Lou Williams Trio - S'wonderful
TTITLE11=Quincy Jones - Moanin'
TTITLE12=Rex Stewart - Boy Meets Horn
TTITLE13=Sydney Bechet - Indian Summer
EXTD=YEAR: 2005
EXTT0=
EXTT1=
EXTT2=
EXTT3=
EXTT4=
EXTT5=
EXTT6=
EXTT7=
EXTT8=
EXTT9=
EXTT10=
EXTT11=
EXTT12=
EXTT13=
PLAYORDER=
